<?xml version="1.0" encoding="UTF-8" standalone="no"?>
<!DOCTYPE svg PUBLIC "-//W3C//DTD SVG 1.1//EN"
 "http://www.w3.org/Graphics/SVG/1.1/DTD/svg11.dtd">
<!-- Generated by graphviz version 2.43.0 (0)
 -->
<!-- Title: %3 Pages: 1 -->
<svg width="2038pt" height="1091pt"
 viewBox="0.00 0.00 2037.79 1091.04" xmlns="http://www.w3.org/2000/svg" xmlns:xlink="http://www.w3.org/1999/xlink">
<g id="graph0" class="graph" transform="scale(1 1) rotate(0) translate(4 1087.04)">
<title>%3</title>
<polygon fill="white" stroke="transparent" points="-4,4 -4,-1087.04 2033.79,-1087.04 2033.79,4 -4,4"/>
<text text-anchor="middle" x="1014.9" y="-1063.04" font-family="Times,serif" font-size="20.00">Call Graph</text>
<g id="clust1" class="cluster">
<title>cluster_legend</title>
<path fill="#f8f8f8" stroke="gray" d="M123.43,-970.04C123.43,-970.04 870.65,-970.04 870.65,-970.04 876.65,-970.04 882.65,-976.04 882.65,-982.04 882.65,-982.04 882.65,-1033.04 882.65,-1033.04 882.65,-1039.04 876.65,-1045.04 870.65,-1045.04 870.65,-1045.04 123.43,-1045.04 123.43,-1045.04 117.43,-1045.04 111.43,-1039.04 111.43,-1033.04 111.43,-1033.04 111.43,-982.04 111.43,-982.04 111.43,-976.04 117.43,-970.04 123.43,-970.04"/>
<text text-anchor="middle" x="497.04" y="-1029.84" font-family="Arial" font-size="14.00">Legend &#45; Node Types</text>
</g>
<!-- schema_app_core.is_employee_active -->
<g id="node1" class="node">
<title>schema_app_core.is_employee_active</title>
<ellipse fill="lightblue" stroke="lightblue" cx="161.22" cy="-246.04" rx="86.95" ry="24.08"/>
<text text-anchor="middle" x="161.22" y="-249.44" font-family="Arial" font-size="12.00">is_employee_active</text>
<text text-anchor="middle" x="161.22" y="-236.44" font-family="Arial" font-size="12.00">(schema_app_core)</text>
</g>
<!-- schema_app_core.archive_old_projects -->
<g id="node2" class="node">
<title>schema_app_core.archive_old_projects</title>
<ellipse fill="cyan" stroke="cyan" cx="839.92" cy="-534.04" rx="90.52" ry="24.08"/>
<text text-anchor="middle" x="839.92" y="-537.44" font-family="Arial" font-size="12.00">archive_old_projects</text>
<text text-anchor="middle" x="839.92" y="-524.44" font-family="Arial" font-size="12.00">(schema_app_core)</text>
</g>
<!-- schema_util_common.date_utils_pkg.format_date&#45;4d8017a27ba885c78e8802d546a9ed252cd8860374f1a852a3392e3a5f41df48 -->
<g id="node26" class="node">
<title>schema_util_common.date_utils_pkg.format_date&#45;4d8017a27ba885c78e8802d546a9ed252cd8860374f1a852a3392e3a5f41df48</title>
<ellipse fill="lightblue" stroke="lightblue" cx="1189.87" cy="-534.04" rx="156.96" ry="24.08"/>
<text text-anchor="middle" x="1189.87" y="-537.44" font-family="Arial" font-size="12.00">format_date</text>
<text text-anchor="middle" x="1189.87" y="-524.44" font-family="Arial" font-size="12.00">(schema_util_common.date_utils_pkg)</text>
</g>
<!-- schema_app_core.archive_old_projects&#45;&gt;schema_util_common.date_utils_pkg.format_date&#45;4d8017a27ba885c78e8802d546a9ed252cd8860374f1a852a3392e3a5f41df48 -->
<g id="edge2" class="edge">
<title>schema_app_core.archive_old_projects&#45;&gt;schema_util_common.date_utils_pkg.format_date&#45;4d8017a27ba885c78e8802d546a9ed252cd8860374f1a852a3392e3a5f41df48</title>
<path fill="none" stroke="lightgray" d="M930.53,-534.04C958.69,-534.04 990.74,-534.04 1022.46,-534.04"/>
<polygon fill="lightgray" stroke="lightgray" points="1022.74,-537.54 1032.74,-534.04 1022.74,-530.54 1022.74,-537.54"/>
</g>
<!-- schema_util_common.logger_pkg.log_debug -->
<g id="node29" class="node">
<title>schema_util_common.logger_pkg.log_debug</title>
<ellipse fill="cyan" stroke="cyan" cx="1544.07" cy="-534.04" rx="144.5" ry="24.08"/>
<text text-anchor="middle" x="1544.07" y="-537.44" font-family="Arial" font-size="12.00">log_debug</text>
<text text-anchor="middle" x="1544.07" y="-524.44" font-family="Arial" font-size="12.00">(schema_util_common.logger_pkg)</text>
</g>
<!-- schema_app_core.archive_old_projects&#45;&gt;schema_util_common.logger_pkg.log_debug -->
<g id="edge3" class="edge">
<title>schema_app_core.archive_old_projects&#45;&gt;schema_util_common.logger_pkg.log_debug</title>
<path fill="none" stroke="lightgray" d="M911.21,-519C947.38,-512.02 992.29,-504.51 1032.9,-501.04 1171.93,-489.18 1207.8,-489.43 1346.85,-501.04 1377.93,-503.64 1411.5,-508.51 1441.93,-513.72"/>
<polygon fill="lightgray" stroke="lightgray" points="1441.67,-517.23 1452.12,-515.5 1442.88,-510.34 1441.67,-517.23"/>
</g>
<!-- schema_util_common.logger_pkg.log_error -->
<g id="node30" class="node">
<title>schema_util_common.logger_pkg.log_error</title>
<ellipse fill="cyan" stroke="cyan" cx="1189.87" cy="-194.04" rx="144.5" ry="24.08"/>
<text text-anchor="middle" x="1189.87" y="-197.44" font-family="Arial" font-size="12.00">log_error</text>
<text text-anchor="middle" x="1189.87" y="-184.44" font-family="Arial" font-size="12.00">(schema_util_common.logger_pkg)</text>
</g>
<!-- schema_app_core.archive_old_projects&#45;&gt;schema_util_common.logger_pkg.log_error -->
<g id="edge4" class="edge">
<title>schema_app_core.archive_old_projects&#45;&gt;schema_util_common.logger_pkg.log_error</title>
<path fill="none" stroke="lightgray" d="M930.46,-533.63C955.14,-529.05 979.79,-519.53 996.9,-501.04 1080.3,-410.88 949.49,-317.21 1032.9,-227.04 1038.97,-220.47 1046.01,-215.03 1053.66,-210.55"/>
<polygon fill="lightgray" stroke="lightgray" points="1055.66,-213.45 1062.9,-205.71 1052.41,-207.25 1055.66,-213.45"/>
</g>
<!-- schema_util_common.logger_pkg.log_info -->
<g id="node33" class="node">
<title>schema_util_common.logger_pkg.log_info</title>
<ellipse fill="lightgray" stroke="lightgray" cx="1189.87" cy="-430.04" rx="144.5" ry="24.08"/>
<text text-anchor="middle" x="1189.87" y="-433.44" font-family="Arial" font-size="12.00">log_info</text>
<text text-anchor="middle" x="1189.87" y="-420.44" font-family="Arial" font-size="12.00">(schema_util_common.logger_pkg)</text>
</g>
<!-- schema_app_core.archive_old_projects&#45;&gt;schema_util_common.logger_pkg.log_info -->
<g id="edge1" class="edge">
<title>schema_app_core.archive_old_projects&#45;&gt;schema_util_common.logger_pkg.log_info</title>
<path fill="none" stroke="lightgray" d="M923.87,-524.95C948.32,-520.07 974.5,-512.57 996.9,-501.04 1016.2,-491.11 1013.75,-478.27 1032.9,-468.04 1046.74,-460.65 1062.04,-454.67 1077.49,-449.84"/>
<polygon fill="lightgray" stroke="lightgray" points="1078.53,-453.18 1087.11,-446.98 1076.53,-446.47 1078.53,-453.18"/>
</g>
<!-- schema_app_core.old_unused_procedure -->
<g id="node3" class="node">
<title>schema_app_core.old_unused_procedure</title>
<ellipse fill="cyan" stroke="cyan" cx="161.22" cy="-525.04" rx="98.99" ry="24.08"/>
<text text-anchor="middle" x="161.22" y="-528.44" font-family="Arial" font-size="12.00">old_unused_procedure</text>
<text text-anchor="middle" x="161.22" y="-515.44" font-family="Arial" font-size="12.00">(schema_app_core)</text>
</g>
<!-- schema_app_finance.trigger_nightly_payroll_run -->
<g id="node4" class="node">
<title>schema_app_finance.trigger_nightly_payroll_run</title>
<ellipse fill="cyan" stroke="cyan" cx="161.22" cy="-312.04" rx="112.36" ry="24.08"/>
<text text-anchor="middle" x="161.22" y="-315.44" font-family="Arial" font-size="12.00">trigger_nightly_payroll_run</text>
<text text-anchor="middle" x="161.22" y="-302.44" font-family="Arial" font-size="12.00">(schema_app_finance)</text>
</g>
<!-- schema_app_finance.payroll_pkg.generate_payslip -->
<g id="node24" class="node">
<title>schema_app_finance.payroll_pkg.generate_payslip</title>
<ellipse fill="cyan" stroke="cyan" cx="502.69" cy="-501.04" rx="144.5" ry="24.08"/>
<text text-anchor="middle" x="502.69" y="-504.44" font-family="Arial" font-size="12.00">generate_payslip</text>
<text text-anchor="middle" x="502.69" y="-491.44" font-family="Arial" font-size="12.00">(schema_app_finance.payroll_pkg)</text>
</g>
<!-- schema_app_finance.trigger_nightly_payroll_run&#45;&gt;schema_app_finance.payroll_pkg.generate_payslip -->
<g id="edge6" class="edge">
<title>schema_app_finance.trigger_nightly_payroll_run&#45;&gt;schema_app_finance.payroll_pkg.generate_payslip</title>
<path fill="none" stroke="lightgray" d="M202.5,-334.46C264.6,-369.04 383.64,-435.32 451.34,-473.01"/>
<polygon fill="lightgray" stroke="lightgray" points="449.7,-476.1 460.14,-477.91 453.11,-469.99 449.7,-476.1"/>
</g>
<!-- schema_app_finance.trigger_nightly_payroll_run&#45;&gt;schema_util_common.logger_pkg.log_error -->
<g id="edge7" class="edge">
<title>schema_app_finance.trigger_nightly_payroll_run&#45;&gt;schema_util_common.logger_pkg.log_error</title>
<path fill="none" stroke="lightgray" d="M245.3,-295.93C347.78,-276.65 527.54,-244.75 682.94,-227.04 802.26,-213.44 938.11,-204.97 1038.97,-200.01"/>
<polygon fill="lightgray" stroke="lightgray" points="1039.42,-203.5 1049.24,-199.52 1039.08,-196.5 1039.42,-203.5"/>
</g>
<!-- schema_app_finance.trigger_nightly_payroll_run&#45;&gt;schema_util_common.logger_pkg.log_info -->
<g id="edge5" class="edge">
<title>schema_app_finance.trigger_nightly_payroll_run&#45;&gt;schema_util_common.logger_pkg.log_info</title>
<path fill="none" stroke="lightgray" d="M272.76,-308.47C485.58,-302.47 936.66,-294.35 996.9,-331.04 1025.43,-348.42 1006.09,-377.09 1032.9,-397.04 1041.48,-403.43 1051.03,-408.65 1061.06,-412.89"/>
<polygon fill="lightgray" stroke="lightgray" points="1059.8,-416.16 1070.38,-416.52 1062.34,-409.63 1059.8,-416.16"/>
</g>
<!-- schema_app_core.employee_pkg.get_employee_raw_data -->
<g id="node5" class="node">
<title>schema_app_core.employee_pkg.get_employee_raw_data</title>
<ellipse fill="lightblue" stroke="lightblue" cx="1544.07" cy="-943.04" rx="144.91" ry="24.08"/>
<text text-anchor="middle" x="1544.07" y="-946.44" font-family="Arial" font-size="12.00">get_employee_raw_data</text>
<text text-anchor="middle" x="1544.07" y="-933.44" font-family="Arial" font-size="12.00">(schema_app_core.employee_pkg)</text>
</g>
<!-- schema_app_core.employee_pkg.get_manager_details_internal -->
<g id="node6" class="node">
<title>schema_app_core.employee_pkg.get_manager_details_internal</title>
<ellipse fill="lightblue" stroke="lightblue" cx="839.92" cy="-936.04" rx="144.91" ry="24.08"/>
<text text-anchor="middle" x="839.92" y="-939.44" font-family="Arial" font-size="12.00">get_manager_details_internal</text>
<text text-anchor="middle" x="839.92" y="-926.44" font-family="Arial" font-size="12.00">(schema_app_core.employee_pkg)</text>
</g>
<!-- schema_app_core.employee_pkg.get_manager_details_internal&#45;&gt;schema_app_core.employee_pkg.get_employee_raw_data -->
<g id="edge10" class="edge">
<title>schema_app_core.employee_pkg.get_manager_details_internal&#45;&gt;schema_app_core.employee_pkg.get_employee_raw_data</title>
<path fill="none" stroke="lightgray" d="M984.7,-937.48C1102.46,-938.65 1268.69,-940.31 1389.13,-941.51"/>
<polygon fill="lightgray" stroke="lightgray" points="1389.14,-945.01 1399.18,-941.61 1389.21,-938.01 1389.14,-945.01"/>
</g>
<!-- schema_app_core.employee_pkg.get_manager_name -->
<g id="node10" class="node">
<title>schema_app_core.employee_pkg.get_manager_name</title>
<ellipse fill="lightblue" stroke="lightblue" cx="1189.87" cy="-988.04" rx="144.91" ry="24.08"/>
<text text-anchor="middle" x="1189.87" y="-991.44" font-family="Arial" font-size="12.00">get_manager_name</text>
<text text-anchor="middle" x="1189.87" y="-978.44" font-family="Arial" font-size="12.00">(schema_app_core.employee_pkg)</text>
</g>
<!-- schema_app_core.employee_pkg.get_manager_details_internal&#45;&gt;schema_app_core.employee_pkg.get_manager_name -->
<g id="edge9" class="edge">
<title>schema_app_core.employee_pkg.get_manager_details_internal&#45;&gt;schema_app_core.employee_pkg.get_manager_name</title>
<path fill="none" stroke="lightgray" d="M948.16,-952.07C987.27,-957.91 1031.7,-964.55 1071.64,-970.52"/>
<polygon fill="lightgray" stroke="lightgray" points="1071.28,-974.01 1081.69,-972.02 1072.32,-967.08 1071.28,-974.01"/>
</g>
<!-- schema_app_core.employee_pkg.get_manager_details_internal&#45;&gt;schema_util_common.logger_pkg.log_debug -->
<g id="edge8" class="edge">
<title>schema_app_core.employee_pkg.get_manager_details_internal&#45;&gt;schema_util_common.logger_pkg.log_debug</title>
<path fill="none" stroke="lightgray" d="M886.16,-913.24C924.49,-894.6 981.29,-868.55 1032.9,-851.04 1168.85,-804.91 1243.18,-874.36 1346.85,-775.04 1388.6,-735.05 1349.62,-697.35 1382.85,-650.04 1409.48,-612.12 1452.56,-581.95 1487.34,-561.89"/>
<polygon fill="lightgray" stroke="lightgray" points="1489.45,-564.71 1496.45,-556.75 1486.02,-558.62 1489.45,-564.71"/>
</g>
<!-- schema_app_core.employee_pkg.add_employee -->
<g id="node7" class="node">
<title>schema_app_core.employee_pkg.add_employee</title>
<ellipse fill="cyan" stroke="cyan" cx="839.92" cy="-90.04" rx="144.91" ry="24.08"/>
<text text-anchor="middle" x="839.92" y="-93.44" font-family="Arial" font-size="12.00">add_employee</text>
<text text-anchor="middle" x="839.92" y="-80.44" font-family="Arial" font-size="12.00">(schema_app_core.employee_pkg)</text>
</g>
<!-- schema_util_common.logger_pkg.log_message -->
<g id="node28" class="node">
<title>schema_util_common.logger_pkg.log_message</title>
<ellipse fill="cyan" stroke="cyan" cx="1885.54" cy="-149.04" rx="144.5" ry="24.08"/>
<text text-anchor="middle" x="1885.54" y="-152.44" font-family="Arial" font-size="12.00">log_message</text>
<text text-anchor="middle" x="1885.54" y="-139.44" font-family="Arial" font-size="12.00">(schema_util_common.logger_pkg)</text>
</g>
<!-- schema_app_core.employee_pkg.add_employee&#45;&gt;schema_util_common.logger_pkg.log_message -->
<g id="edge12" class="edge">
<title>schema_app_core.employee_pkg.add_employee&#45;&gt;schema_util_common.logger_pkg.log_message</title>
<path fill="none" stroke="lightgray" d="M977.81,-97.53C1079.61,-103.12 1221.91,-110.98 1346.85,-118.04 1479.7,-125.55 1631.01,-134.29 1739.19,-140.57"/>
<polygon fill="lightgray" stroke="lightgray" points="1739.01,-144.07 1749.2,-141.15 1739.42,-137.08 1739.01,-144.07"/>
</g>
<!-- schema_app_core.employee_pkg.add_employee&#45;&gt;schema_util_common.logger_pkg.log_debug -->
<g id="edge11" class="edge">
<title>schema_app_core.employee_pkg.add_employee&#45;&gt;schema_util_common.logger_pkg.log_debug</title>
<path fill="none" stroke="lightgray" d="M948.77,-105.94C976.2,-109.94 1005.63,-114.19 1032.9,-118.04 1102.62,-127.9 1289.19,-120.62 1346.85,-161.04 1466.46,-244.87 1518.84,-424.75 1536.11,-499.92"/>
<polygon fill="lightgray" stroke="lightgray" points="1532.73,-500.82 1538.32,-509.82 1539.56,-499.29 1532.73,-500.82"/>
</g>
<!-- schema_app_core.employee_pkg.add_employee&#45;&gt;schema_util_common.logger_pkg.log_error -->
<g id="edge13" class="edge">
<title>schema_app_core.employee_pkg.add_employee&#45;&gt;schema_util_common.logger_pkg.log_error</title>
<path fill="none" stroke="lightgray" d="M950.89,-105.55C966.81,-109.99 982.62,-115.7 996.9,-123.04 1016.2,-132.97 1013.75,-145.82 1032.9,-156.04 1046.74,-163.43 1062.04,-169.41 1077.49,-174.24"/>
<polygon fill="lightgray" stroke="lightgray" points="1076.53,-177.61 1087.11,-177.1 1078.53,-170.9 1076.53,-177.61"/>
</g>
<!-- schema_app_core.employee_pkg.get_employee -->
<g id="node8" class="node">
<title>schema_app_core.employee_pkg.get_employee</title>
<ellipse fill="lightblue" stroke="lightblue" cx="1189.87" cy="-638.04" rx="144.91" ry="24.08"/>
<text text-anchor="middle" x="1189.87" y="-641.44" font-family="Arial" font-size="12.00">get_employee</text>
<text text-anchor="middle" x="1189.87" y="-628.44" font-family="Arial" font-size="12.00">(schema_app_core.employee_pkg)</text>
</g>
<!-- schema_app_core.employee_pkg.get_employee&#45;&gt;schema_app_core.employee_pkg.get_employee_raw_data -->
<g id="edge15" class="edge">
<title>schema_app_core.employee_pkg.get_employee&#45;&gt;schema_app_core.employee_pkg.get_employee_raw_data</title>
<path fill="none" stroke="lightgray" d="M1271.68,-658.03C1299.41,-668.78 1328.14,-684.96 1346.85,-709.04 1402.53,-780.71 1319.51,-845.04 1382.85,-910.04 1389.69,-917.06 1397.6,-922.79 1406.16,-927.44"/>
<polygon fill="lightgray" stroke="lightgray" points="1404.79,-930.67 1415.31,-931.92 1407.86,-924.38 1404.79,-930.67"/>
</g>
<!-- schema_app_core.employee_pkg.get_employee&#45;&gt;schema_util_common.logger_pkg.log_debug -->
<g id="edge14" class="edge">
<title>schema_app_core.employee_pkg.get_employee&#45;&gt;schema_util_common.logger_pkg.log_debug</title>
<path fill="none" stroke="lightgray" d="M1276.22,-618.64C1299.25,-613.03 1324.09,-606.63 1346.85,-600.04 1389,-587.84 1435.58,-572.27 1472.77,-559.31"/>
<polygon fill="lightgray" stroke="lightgray" points="1474.22,-562.51 1482.51,-555.91 1471.91,-555.9 1474.22,-562.51"/>
</g>
<!-- schema_app_core.employee_pkg.update_employee_info -->
<g id="node9" class="node">
<title>schema_app_core.employee_pkg.update_employee_info</title>
<ellipse fill="cyan" stroke="cyan" cx="839.92" cy="-468.04" rx="144.91" ry="24.08"/>
<text text-anchor="middle" x="839.92" y="-471.44" font-family="Arial" font-size="12.00">update_employee_info</text>
<text text-anchor="middle" x="839.92" y="-458.44" font-family="Arial" font-size="12.00">(schema_app_core.employee_pkg)</text>
</g>
<!-- schema_app_core.employee_pkg.update_employee_info&#45;&gt;schema_util_common.logger_pkg.log_info -->
<g id="edge16" class="edge">
<title>schema_app_core.employee_pkg.update_employee_info&#45;&gt;schema_util_common.logger_pkg.log_info</title>
<path fill="none" stroke="lightgray" d="M961.64,-454.86C992.9,-451.44 1026.7,-447.75 1058.43,-444.29"/>
<polygon fill="lightgray" stroke="lightgray" points="1059.1,-447.74 1068.66,-443.17 1058.34,-440.78 1059.1,-447.74"/>
</g>
<!-- schema_app_core.employee_pkg.get_manager_name&#45;&gt;schema_app_core.employee_pkg.get_employee_raw_data -->
<g id="edge17" class="edge">
<title>schema_app_core.employee_pkg.get_manager_name&#45;&gt;schema_app_core.employee_pkg.get_employee_raw_data</title>
<path fill="none" stroke="lightgray" d="M1305.22,-973.43C1341.39,-968.81 1381.54,-963.68 1418.39,-958.97"/>
<polygon fill="lightgray" stroke="lightgray" points="1419.22,-962.39 1428.69,-957.66 1418.33,-955.45 1419.22,-962.39"/>
</g>
<!-- schema_app_core.employee_pkg.get_direct_reports -->
<g id="node11" class="node">
<title>schema_app_core.employee_pkg.get_direct_reports</title>
<ellipse fill="lightblue" stroke="lightblue" cx="161.22" cy="-664.04" rx="144.91" ry="24.08"/>
<text text-anchor="middle" x="161.22" y="-667.44" font-family="Arial" font-size="12.00">get_direct_reports</text>
<text text-anchor="middle" x="161.22" y="-654.44" font-family="Arial" font-size="12.00">(schema_app_core.employee_pkg)</text>
</g>
<!-- schema_app_core.project_pkg.create_project -->
<g id="node12" class="node">
<title>schema_app_core.project_pkg.create_project</title>
<ellipse fill="cyan" stroke="cyan" cx="839.92" cy="-364.04" rx="132.87" ry="24.08"/>
<text text-anchor="middle" x="839.92" y="-367.44" font-family="Arial" font-size="12.00">create_project</text>
<text text-anchor="middle" x="839.92" y="-354.44" font-family="Arial" font-size="12.00">(schema_app_core.project_pkg)</text>
</g>
<!-- schema_app_core.project_pkg.create_project&#45;&gt;schema_app_core.employee_pkg.get_employee -->
<g id="edge19" class="edge">
<title>schema_app_core.project_pkg.create_project&#45;&gt;schema_app_core.employee_pkg.get_employee</title>
<path fill="none" stroke="lightgray" d="M917.36,-383.71C945.92,-394.57 976.36,-410.91 996.9,-435.04 1036.3,-481.36 993.49,-520.73 1032.9,-567.04 1050.76,-588.04 1076.13,-603.14 1101.23,-613.86"/>
<polygon fill="lightgray" stroke="lightgray" points="1100.23,-617.23 1110.82,-617.76 1102.87,-610.75 1100.23,-617.23"/>
</g>
<!-- schema_app_core.project_pkg.create_project&#45;&gt;schema_util_common.logger_pkg.log_error -->
<g id="edge20" class="edge">
<title>schema_app_core.project_pkg.create_project&#45;&gt;schema_util_common.logger_pkg.log_error</title>
<path fill="none" stroke="lightgray" d="M910.29,-343.46C939.59,-332.17 972.5,-315.74 996.9,-293.04 1021.36,-270.28 1006.09,-247 1032.9,-227.04 1041.48,-220.65 1051.03,-215.44 1061.06,-211.19"/>
<polygon fill="lightgray" stroke="lightgray" points="1062.34,-214.45 1070.38,-207.56 1059.8,-207.93 1062.34,-214.45"/>
</g>
<!-- schema_app_core.project_pkg.create_project&#45;&gt;schema_util_common.logger_pkg.log_info -->
<g id="edge18" class="edge">
<title>schema_app_core.project_pkg.create_project&#45;&gt;schema_util_common.logger_pkg.log_info</title>
<path fill="none" stroke="lightgray" d="M932.34,-381.38C978.87,-390.21 1035.65,-400.98 1083.96,-410.14"/>
<polygon fill="lightgray" stroke="lightgray" points="1083.34,-413.59 1093.81,-412.01 1084.64,-406.71 1083.34,-413.59"/>
</g>
<!-- schema_app_core.project_pkg.get_project_details -->
<g id="node13" class="node">
<title>schema_app_core.project_pkg.get_project_details</title>
<ellipse fill="lightblue" stroke="lightblue" cx="1189.87" cy="-52.04" rx="132.87" ry="24.08"/>
<text text-anchor="middle" x="1189.87" y="-55.44" font-family="Arial" font-size="12.00">get_project_details</text>
<text text-anchor="middle" x="1189.87" y="-42.44" font-family="Arial" font-size="12.00">(schema_app_core.project_pkg)</text>
</g>
<!-- schema_app_core.project_pkg.assign_employee_to_project -->
<g id="node14" class="node">
<title>schema_app_core.project_pkg.assign_employee_to_project</title>
<ellipse fill="cyan" stroke="cyan" cx="839.92" cy="-638.04" rx="132.87" ry="24.08"/>
<text text-anchor="middle" x="839.92" y="-641.44" font-family="Arial" font-size="12.00">assign_employee_to_project</text>
<text text-anchor="middle" x="839.92" y="-628.44" font-family="Arial" font-size="12.00">(schema_app_core.project_pkg)</text>
</g>
<!-- schema_app_core.project_pkg.assign_employee_to_project&#45;&gt;schema_app_core.employee_pkg.get_employee -->
<g id="edge21" class="edge">
<title>schema_app_core.project_pkg.assign_employee_to_project&#45;&gt;schema_app_core.employee_pkg.get_employee</title>
<path fill="none" stroke="lightgray" d="M972.96,-638.04C993.12,-638.04 1014.07,-638.04 1034.65,-638.04"/>
<polygon fill="lightgray" stroke="lightgray" points="1034.72,-641.54 1044.72,-638.04 1034.72,-634.54 1034.72,-641.54"/>
</g>
<!-- schema_app_core.project_pkg.assign_employee_to_project&#45;&gt;schema_util_common.logger_pkg.log_debug -->
<g id="edge22" class="edge">
<title>schema_app_core.project_pkg.assign_employee_to_project&#45;&gt;schema_util_common.logger_pkg.log_debug</title>
<path fill="none" stroke="lightgray" d="M934.51,-620.99C965.74,-615.56 1000.77,-609.74 1032.9,-605.04 1171.97,-584.69 1207.74,-587.15 1346.85,-567.04 1375.37,-562.92 1406.14,-557.98 1434.66,-553.19"/>
<polygon fill="lightgray" stroke="lightgray" points="1435.37,-556.62 1444.65,-551.51 1434.2,-549.72 1435.37,-556.62"/>
</g>
<!-- schema_app_core.project_pkg.get_assigned_employees -->
<g id="node15" class="node">
<title>schema_app_core.project_pkg.get_assigned_employees</title>
<ellipse fill="lightblue" stroke="lightblue" cx="161.22" cy="-767.04" rx="132.87" ry="24.08"/>
<text text-anchor="middle" x="161.22" y="-770.44" font-family="Arial" font-size="12.00">get_assigned_employees</text>
<text text-anchor="middle" x="161.22" y="-757.44" font-family="Arial" font-size="12.00">(schema_app_core.project_pkg)</text>
</g>
<!-- schema_app_finance.invoice_pkg.create_invoice_for_project -->
<g id="node16" class="node">
<title>schema_app_finance.invoice_pkg.create_invoice_for_project</title>
<ellipse fill="cyan" stroke="cyan" cx="839.92" cy="-24.04" rx="145.83" ry="24.08"/>
<text text-anchor="middle" x="839.92" y="-27.44" font-family="Arial" font-size="12.00">create_invoice_for_project</text>
<text text-anchor="middle" x="839.92" y="-14.44" font-family="Arial" font-size="12.00">(schema_app_finance.invoice_pkg)</text>
</g>
<!-- schema_app_finance.invoice_pkg.create_invoice_for_project&#45;&gt;schema_app_core.project_pkg.get_project_details -->
<g id="edge23" class="edge">
<title>schema_app_finance.invoice_pkg.create_invoice_for_project&#45;&gt;schema_app_core.project_pkg.get_project_details</title>
<path fill="none" stroke="lightgray" d="M971.47,-34.55C999.73,-36.82 1029.61,-39.23 1057.88,-41.5"/>
<polygon fill="lightgray" stroke="lightgray" points="1057.97,-45.02 1068.22,-42.33 1058.53,-38.04 1057.97,-45.02"/>
</g>
<!-- schema_app_finance.invoice_pkg.create_invoice_for_project&#45;&gt;schema_util_common.logger_pkg.log_message -->
<g id="edge25" class="edge">
<title>schema_app_finance.invoice_pkg.create_invoice_for_project&#45;&gt;schema_util_common.logger_pkg.log_message</title>
<path fill="none" stroke="lightgray" d="M983.49,-19.92C1000.14,-19.56 1016.89,-19.25 1032.9,-19.04 1172.42,-17.23 1208.3,-2.53 1346.85,-19.04 1514.53,-39.02 1705.52,-92.88 1808.7,-124.66"/>
<polygon fill="lightgray" stroke="lightgray" points="1807.82,-128.05 1818.41,-127.66 1809.89,-121.36 1807.82,-128.05"/>
</g>
<!-- schema_app_finance.invoice_pkg.create_invoice_for_project&#45;&gt;schema_util_common.logger_pkg.log_error -->
<g id="edge24" class="edge">
<title>schema_app_finance.invoice_pkg.create_invoice_for_project&#45;&gt;schema_util_common.logger_pkg.log_error</title>
<path fill="none" stroke="lightgray" d="M948.72,-40.15C965.26,-44.52 981.83,-50.05 996.9,-57.04 1015.28,-65.58 1016.58,-73.01 1032.9,-85.04 1070.56,-112.82 1114.31,-143.24 1145.87,-164.87"/>
<polygon fill="lightgray" stroke="lightgray" points="1144.21,-167.97 1154.44,-170.72 1148.16,-162.19 1144.21,-167.97"/>
</g>
<!-- schema_app_finance.invoice_pkg.get_invoice_amount -->
<g id="node17" class="node">
<title>schema_app_finance.invoice_pkg.get_invoice_amount</title>
<ellipse fill="lightblue" stroke="lightblue" cx="161.22" cy="-851.04" rx="145.83" ry="24.08"/>
<text text-anchor="middle" x="161.22" y="-854.44" font-family="Arial" font-size="12.00">get_invoice_amount</text>
<text text-anchor="middle" x="161.22" y="-841.44" font-family="Arial" font-size="12.00">(schema_app_finance.invoice_pkg)</text>
</g>
<!-- schema_app_finance.invoice_pkg.send_invoice -->
<g id="node18" class="node">
<title>schema_app_finance.invoice_pkg.send_invoice</title>
<ellipse fill="cyan" stroke="cyan" cx="839.92" cy="-260.04" rx="145.83" ry="24.08"/>
<text text-anchor="middle" x="839.92" y="-263.44" font-family="Arial" font-size="12.00">send_invoice</text>
<text text-anchor="middle" x="839.92" y="-250.44" font-family="Arial" font-size="12.00">(schema_app_finance.invoice_pkg)</text>
</g>
<!-- schema_app_finance.invoice_pkg.dummy_utl_http_call -->
<g id="node19" class="node">
<title>schema_app_finance.invoice_pkg.dummy_utl_http_call</title>
<ellipse fill="cyan" stroke="cyan" cx="1189.87" cy="-364.04" rx="145.83" ry="24.08"/>
<text text-anchor="middle" x="1189.87" y="-367.44" font-family="Arial" font-size="12.00">dummy_utl_http_call</text>
<text text-anchor="middle" x="1189.87" y="-354.44" font-family="Arial" font-size="12.00">(schema_app_finance.invoice_pkg)</text>
</g>
<!-- schema_app_finance.invoice_pkg.send_invoice&#45;&gt;schema_app_finance.invoice_pkg.dummy_utl_http_call -->
<g id="edge27" class="edge">
<title>schema_app_finance.invoice_pkg.send_invoice&#45;&gt;schema_app_finance.invoice_pkg.dummy_utl_http_call</title>
<path fill="none" stroke="lightgray" d="M940.05,-277.52C959.43,-282.77 979.2,-289.49 996.9,-298.04 1015.15,-306.86 1014.64,-317.22 1032.9,-326.04 1047.55,-333.12 1063.63,-338.95 1079.73,-343.72"/>
<polygon fill="lightgray" stroke="lightgray" points="1079.16,-347.2 1089.74,-346.56 1081.07,-340.47 1079.16,-347.2"/>
</g>
<!-- schema_app_finance.invoice_pkg.dummy_utl_file_write -->
<g id="node20" class="node">
<title>schema_app_finance.invoice_pkg.dummy_utl_file_write</title>
<ellipse fill="cyan" stroke="cyan" cx="1189.87" cy="-260.04" rx="145.83" ry="24.08"/>
<text text-anchor="middle" x="1189.87" y="-263.44" font-family="Arial" font-size="12.00">dummy_utl_file_write</text>
<text text-anchor="middle" x="1189.87" y="-250.44" font-family="Arial" font-size="12.00">(schema_app_finance.invoice_pkg)</text>
</g>
<!-- schema_app_finance.invoice_pkg.send_invoice&#45;&gt;schema_app_finance.invoice_pkg.dummy_utl_file_write -->
<g id="edge28" class="edge">
<title>schema_app_finance.invoice_pkg.send_invoice&#45;&gt;schema_app_finance.invoice_pkg.dummy_utl_file_write</title>
<path fill="none" stroke="lightgray" d="M985.71,-260.04C1001.55,-260.04 1017.73,-260.04 1033.69,-260.04"/>
<polygon fill="lightgray" stroke="lightgray" points="1034.14,-263.54 1044.14,-260.04 1034.14,-256.54 1034.14,-263.54"/>
</g>
<!-- schema_app_finance.invoice_pkg.send_invoice&#45;&gt;schema_util_common.logger_pkg.log_debug -->
<g id="edge26" class="edge">
<title>schema_app_finance.invoice_pkg.send_invoice&#45;&gt;schema_util_common.logger_pkg.log_debug</title>
<path fill="none" stroke="lightgray" d="M938.43,-277.77C968.66,-283.01 1002.11,-288.54 1032.9,-293.04 1171.97,-313.4 1221,-268.46 1346.85,-331.04 1425.81,-370.3 1490.7,-454.64 1522.3,-501.3"/>
<polygon fill="lightgray" stroke="lightgray" points="1519.53,-503.46 1527.99,-509.83 1525.35,-499.57 1519.53,-503.46"/>
</g>
<!-- schema_app_finance.invoice_pkg.send_invoice&#45;&gt;schema_util_common.logger_pkg.log_error -->
<g id="edge30" class="edge">
<title>schema_app_finance.invoice_pkg.send_invoice&#45;&gt;schema_util_common.logger_pkg.log_error</title>
<path fill="none" stroke="lightgray" d="M936.46,-241.92C982.19,-233.24 1037.08,-222.83 1083.97,-213.94"/>
<polygon fill="lightgray" stroke="lightgray" points="1084.67,-217.37 1093.85,-212.07 1083.37,-210.49 1084.67,-217.37"/>
</g>
<!-- schema_app_finance.invoice_pkg.send_invoice&#45;&gt;schema_util_common.logger_pkg.log_info -->
<g id="edge29" class="edge">
<title>schema_app_finance.invoice_pkg.send_invoice&#45;&gt;schema_util_common.logger_pkg.log_info</title>
<path fill="none" stroke="lightgray" d="M956.88,-274.46C971.52,-280.09 985.37,-287.72 996.9,-298.04 1031.77,-329.28 997.55,-366.34 1032.9,-397.04 1040.42,-403.58 1048.91,-408.93 1057.95,-413.29"/>
<polygon fill="lightgray" stroke="lightgray" points="1056.59,-416.52 1067.15,-417.34 1059.41,-410.11 1056.59,-416.52"/>
</g>
<!-- schema_app_finance.payroll_pkg.process_employee_payroll -->
<g id="node21" class="node">
<title>schema_app_finance.payroll_pkg.process_employee_payroll</title>
<ellipse fill="cyan" stroke="cyan" cx="839.92" cy="-704.04" rx="144.5" ry="24.08"/>
<text text-anchor="middle" x="839.92" y="-707.44" font-family="Arial" font-size="12.00">process_employee_payroll</text>
<text text-anchor="middle" x="839.92" y="-694.44" font-family="Arial" font-size="12.00">(schema_app_finance.payroll_pkg)</text>
</g>
<!-- schema_app_finance.payroll_pkg.process_employee_payroll&#45;&gt;schema_app_core.employee_pkg.get_employee -->
<g id="edge32" class="edge">
<title>schema_app_finance.payroll_pkg.process_employee_payroll&#45;&gt;schema_app_core.employee_pkg.get_employee</title>
<path fill="none" stroke="lightgray" d="M936,-686.01C981.74,-677.33 1036.72,-666.9 1083.71,-657.99"/>
<polygon fill="lightgray" stroke="lightgray" points="1084.43,-661.41 1093.61,-656.11 1083.13,-654.54 1084.43,-661.41"/>
</g>
<!-- schema_app_finance.payroll_pkg.calculate_tax&#45;4412c2d4ec4b62febba3a3a5bfc7a2503de192c35a1c7c832cb10473b9312c1a -->
<g id="node22" class="node">
<title>schema_app_finance.payroll_pkg.calculate_tax&#45;4412c2d4ec4b62febba3a3a5bfc7a2503de192c35a1c7c832cb10473b9312c1a</title>
<ellipse fill="lightblue" stroke="lightblue" cx="1189.87" cy="-742.04" rx="144.5" ry="24.08"/>
<text text-anchor="middle" x="1189.87" y="-745.44" font-family="Arial" font-size="12.00">calculate_tax</text>
<text text-anchor="middle" x="1189.87" y="-732.44" font-family="Arial" font-size="12.00">(schema_app_finance.payroll_pkg)</text>
</g>
<!-- schema_app_finance.payroll_pkg.process_employee_payroll&#45;&gt;schema_app_finance.payroll_pkg.calculate_tax&#45;4412c2d4ec4b62febba3a3a5bfc7a2503de192c35a1c7c832cb10473b9312c1a -->
<g id="edge35" class="edge">
<title>schema_app_finance.payroll_pkg.process_employee_payroll&#45;&gt;schema_app_finance.payroll_pkg.calculate_tax&#45;4412c2d4ec4b62febba3a3a5bfc7a2503de192c35a1c7c832cb10473b9312c1a</title>
<path fill="none" stroke="lightgray" d="M961.15,-717.17C992.53,-720.6 1026.48,-724.31 1058.36,-727.79"/>
<polygon fill="lightgray" stroke="lightgray" points="1058.31,-731.3 1068.63,-728.91 1059.07,-724.35 1058.31,-731.3"/>
</g>
<!-- schema_app_finance.payroll_pkg.calculate_tax&#45;8068f7961cd98d57dc614a4b68d716c112365ce1bb8bef95269db41be88beda5 -->
<g id="node23" class="node">
<title>schema_app_finance.payroll_pkg.calculate_tax&#45;8068f7961cd98d57dc614a4b68d716c112365ce1bb8bef95269db41be88beda5</title>
<ellipse fill="lightblue" stroke="lightblue" cx="1189.87" cy="-884.04" rx="144.5" ry="24.08"/>
<text text-anchor="middle" x="1189.87" y="-887.44" font-family="Arial" font-size="12.00">calculate_tax</text>
<text text-anchor="middle" x="1189.87" y="-874.44" font-family="Arial" font-size="12.00">(schema_app_finance.payroll_pkg)</text>
</g>
<!-- schema_app_finance.payroll_pkg.process_employee_payroll&#45;&gt;schema_app_finance.payroll_pkg.calculate_tax&#45;8068f7961cd98d57dc614a4b68d716c112365ce1bb8bef95269db41be88beda5 -->
<g id="edge36" class="edge">
<title>schema_app_finance.payroll_pkg.process_employee_payroll&#45;&gt;schema_app_finance.payroll_pkg.calculate_tax&#45;8068f7961cd98d57dc614a4b68d716c112365ce1bb8bef95269db41be88beda5</title>
<path fill="none" stroke="lightgray" d="M866.09,-727.91C900.86,-759.59 966.82,-815.1 1032.9,-846.04 1047.98,-853.11 1064.53,-858.94 1081.03,-863.74"/>
<polygon fill="lightgray" stroke="lightgray" points="1080.15,-867.13 1090.72,-866.45 1082.03,-860.39 1080.15,-867.13"/>
</g>
<!-- schema_util_common.date_utils_pkg.format_date&#45;054b37e737f9871afbc8dec8f3b3a2fc6ecf296aa26cc4ab64a9e44823a87411 -->
<g id="node27" class="node">
<title>schema_util_common.date_utils_pkg.format_date&#45;054b37e737f9871afbc8dec8f3b3a2fc6ecf296aa26cc4ab64a9e44823a87411</title>
<ellipse fill="lightblue" stroke="lightblue" cx="1544.07" cy="-683.04" rx="156.96" ry="24.08"/>
<text text-anchor="middle" x="1544.07" y="-686.44" font-family="Arial" font-size="12.00">format_date</text>
<text text-anchor="middle" x="1544.07" y="-673.44" font-family="Arial" font-size="12.00">(schema_util_common.date_utils_pkg)</text>
</g>
<!-- schema_app_finance.payroll_pkg.process_employee_payroll&#45;&gt;schema_util_common.date_utils_pkg.format_date&#45;054b37e737f9871afbc8dec8f3b3a2fc6ecf296aa26cc4ab64a9e44823a87411 -->
<g id="edge34" class="edge">
<title>schema_app_finance.payroll_pkg.process_employee_payroll&#45;&gt;schema_util_common.date_utils_pkg.format_date&#45;054b37e737f9871afbc8dec8f3b3a2fc6ecf296aa26cc4ab64a9e44823a87411</title>
<path fill="none" stroke="lightgray" d="M888.11,-726.86C926.19,-743.94 981.65,-765.87 1032.9,-775.04 1170.25,-799.63 1210.65,-805.39 1346.85,-775.04 1401.42,-762.88 1458.75,-733.85 1497.25,-711.62"/>
<polygon fill="lightgray" stroke="lightgray" points="1499.27,-714.49 1506.13,-706.42 1495.73,-708.45 1499.27,-714.49"/>
</g>
<!-- schema_app_finance.payroll_pkg.process_employee_payroll&#45;&gt;schema_util_common.logger_pkg.log_debug -->
<g id="edge31" class="edge">
<title>schema_app_finance.payroll_pkg.process_employee_payroll&#45;&gt;schema_util_common.logger_pkg.log_debug</title>
<path fill="none" stroke="lightgray" d="M984.36,-703.24C1110.03,-700.98 1282.37,-693.66 1346.85,-671.04 1364.16,-664.97 1450.92,-602.11 1503.11,-563.68"/>
<polygon fill="lightgray" stroke="lightgray" points="1505.2,-566.49 1511.17,-557.74 1501.05,-560.85 1505.2,-566.49"/>
</g>
<!-- schema_app_finance.payroll_pkg.process_employee_payroll&#45;&gt;schema_util_common.logger_pkg.log_error -->
<g id="edge33" class="edge">
<title>schema_app_finance.payroll_pkg.process_employee_payroll&#45;&gt;schema_util_common.logger_pkg.log_error</title>
<path fill="none" stroke="lightgray" d="M967.73,-692.62C978.74,-687.32 988.76,-680.29 996.9,-671.04 1062.29,-596.72 967.5,-301.36 1032.9,-227.04 1038.74,-220.4 1045.57,-214.89 1053.03,-210.36"/>
<polygon fill="lightgray" stroke="lightgray" points="1054.93,-213.3 1062.06,-205.46 1051.6,-207.15 1054.93,-213.3"/>
</g>
<!-- schema_app_finance.payroll_pkg.process_employee_payroll&#45;&gt;schema_util_common.logger_pkg.log_info -->
<g id="edge37" class="edge">
<title>schema_app_finance.payroll_pkg.process_employee_payroll&#45;&gt;schema_util_common.logger_pkg.log_info</title>
<path fill="none" stroke="lightgray" d="M965.42,-692.03C977.09,-686.88 987.89,-680.04 996.9,-671.04 1051.51,-616.44 984.56,-561.28 1032.9,-501.04 1049.98,-479.74 1074.87,-464.59 1099.76,-453.92"/>
<polygon fill="lightgray" stroke="lightgray" points="1101.34,-457.05 1109.28,-450.04 1098.7,-450.57 1101.34,-457.05"/>
</g>
<!-- schema_util_common.string_utils_pkg.to_title_case -->
<g id="node31" class="node">
<title>schema_util_common.string_utils_pkg.to_title_case</title>
<ellipse fill="lightblue" stroke="lightblue" cx="1544.07" cy="-877.04" rx="161.44" ry="24.08"/>
<text text-anchor="middle" x="1544.07" y="-880.44" font-family="Arial" font-size="12.00">to_title_case</text>
<text text-anchor="middle" x="1544.07" y="-867.44" font-family="Arial" font-size="12.00">(schema_util_common.string_utils_pkg)</text>
</g>
<!-- schema_app_finance.payroll_pkg.calculate_tax&#45;8068f7961cd98d57dc614a4b68d716c112365ce1bb8bef95269db41be88beda5&#45;&gt;schema_util_common.string_utils_pkg.to_title_case -->
<g id="edge38" class="edge">
<title>schema_app_finance.payroll_pkg.calculate_tax&#45;8068f7961cd98d57dc614a4b68d716c112365ce1bb8bef95269db41be88beda5&#45;&gt;schema_util_common.string_utils_pkg.to_title_case</title>
<path fill="none" stroke="lightgray" d="M1333.36,-881.21C1346.67,-880.95 1360.24,-880.68 1373.75,-880.41"/>
<polygon fill="lightgray" stroke="lightgray" points="1374.15,-883.9 1384.07,-880.2 1374.01,-876.9 1374.15,-883.9"/>
</g>
<!-- schema_app_finance.payroll_pkg.generate_payslip&#45;&gt;schema_app_finance.payroll_pkg.process_employee_payroll -->
<g id="edge39" class="edge">
<title>schema_app_finance.payroll_pkg.generate_payslip&#45;&gt;schema_app_finance.payroll_pkg.process_employee_payroll</title>
<path fill="none" stroke="lightgray" d="M521.67,-525.11C551.04,-562.57 613.08,-634.34 682.94,-671.04 694.17,-676.94 706.37,-681.78 718.85,-685.76"/>
<polygon fill="lightgray" stroke="lightgray" points="717.84,-689.11 728.43,-688.64 719.85,-682.41 717.84,-689.11"/>
</g>
<!-- schema_app_finance.payroll_pkg.generate_payslip&#45;&gt;schema_util_common.date_utils_pkg.format_date&#45;4d8017a27ba885c78e8802d546a9ed252cd8860374f1a852a3392e3a5f41df48 -->
<g id="edge41" class="edge">
<title>schema_app_finance.payroll_pkg.generate_payslip&#45;&gt;schema_util_common.date_utils_pkg.format_date&#45;4d8017a27ba885c78e8802d546a9ed252cd8860374f1a852a3392e3a5f41df48</title>
<path fill="none" stroke="lightgray" d="M551.09,-523.73C586.5,-539.38 636.58,-558.78 682.94,-567.04 820.9,-591.63 982.93,-572.88 1085.74,-555.18"/>
<polygon fill="lightgray" stroke="lightgray" points="1086.56,-558.59 1095.81,-553.41 1085.36,-551.69 1086.56,-558.59"/>
</g>
<!-- schema_app_finance.payroll_pkg.generate_payslip&#45;&gt;schema_util_common.logger_pkg.log_info -->
<g id="edge40" class="edge">
<title>schema_app_finance.payroll_pkg.generate_payslip&#45;&gt;schema_util_common.logger_pkg.log_info</title>
<path fill="none" stroke="lightgray" d="M551.49,-478.32C586.89,-462.78 636.79,-443.5 682.94,-435.04 805.75,-412.52 948.16,-413.47 1050.54,-418.77"/>
<polygon fill="lightgray" stroke="lightgray" points="1050.46,-422.27 1060.63,-419.31 1050.83,-415.28 1050.46,-422.27"/>
</g>
<!-- schema_util_common.date_utils_pkg.add_business_days -->
<g id="node25" class="node">
<title>schema_util_common.date_utils_pkg.add_business_days</title>
<ellipse fill="lightblue" stroke="lightblue" cx="839.92" cy="-156.04" rx="156.96" ry="24.08"/>
<text text-anchor="middle" x="839.92" y="-159.44" font-family="Arial" font-size="12.00">add_business_days</text>
<text text-anchor="middle" x="839.92" y="-146.44" font-family="Arial" font-size="12.00">(schema_util_common.date_utils_pkg)</text>
</g>
<!-- schema_util_common.date_utils_pkg.add_business_days&#45;&gt;schema_util_common.logger_pkg.log_error -->
<g id="edge42" class="edge">
<title>schema_util_common.date_utils_pkg.add_business_days&#45;&gt;schema_util_common.logger_pkg.log_error</title>
<path fill="none" stroke="lightgray" d="M968.51,-169.98C997.96,-173.19 1029.32,-176.62 1058.87,-179.84"/>
<polygon fill="lightgray" stroke="lightgray" points="1058.5,-183.32 1068.82,-180.93 1059.26,-176.37 1058.5,-183.32"/>
</g>
<!-- schema_util_common.date_utils_pkg.format_date&#45;4d8017a27ba885c78e8802d546a9ed252cd8860374f1a852a3392e3a5f41df48&#45;&gt;schema_util_common.date_utils_pkg.format_date&#45;054b37e737f9871afbc8dec8f3b3a2fc6ecf296aa26cc4ab64a9e44823a87411 -->
<g id="edge43" class="edge">
<title>schema_util_common.date_utils_pkg.format_date&#45;4d8017a27ba885c78e8802d546a9ed252cd8860374f1a852a3392e3a5f41df48&#45;&gt;schema_util_common.date_utils_pkg.format_date&#45;054b37e737f9871afbc8dec8f3b3a2fc6ecf296aa26cc4ab64a9e44823a87411</title>
<path fill="none" stroke="lightgray" d="M1244.36,-556.67C1307.77,-583.5 1413.28,-628.13 1480.44,-656.55"/>
<polygon fill="lightgray" stroke="lightgray" points="1479.08,-659.77 1489.65,-660.44 1481.81,-653.32 1479.08,-659.77"/>
</g>
<!-- schema_util_common.logger_pkg.log_debug&#45;&gt;schema_util_common.logger_pkg.log_message -->
<g id="edge44" class="edge">
<title>schema_util_common.logger_pkg.log_debug&#45;&gt;schema_util_common.logger_pkg.log_message</title>
<path fill="none" stroke="lightgray" d="M1566.05,-510.25C1624.63,-443.81 1789.99,-256.27 1856.41,-180.94"/>
<polygon fill="lightgray" stroke="lightgray" points="1859.28,-182.98 1863.27,-173.17 1854.03,-178.35 1859.28,-182.98"/>
</g>
<!-- schema_util_common.logger_pkg.log_error&#45;&gt;schema_util_common.logger_pkg.log_message -->
<g id="edge45" class="edge">
<title>schema_util_common.logger_pkg.log_error&#45;&gt;schema_util_common.logger_pkg.log_message</title>
<path fill="none" stroke="lightgray" d="M1324.62,-185.37C1444,-177.62 1618.37,-166.31 1740.72,-158.37"/>
<polygon fill="lightgray" stroke="lightgray" points="1741.16,-161.85 1750.91,-157.71 1740.71,-154.87 1741.16,-161.85"/>
</g>
<!-- schema_util_common.string_utils_pkg.safe_substr -->
<g id="node32" class="node">
<title>schema_util_common.string_utils_pkg.safe_substr</title>
<ellipse fill="lightblue" stroke="lightblue" cx="161.22" cy="-926.04" rx="161.44" ry="24.08"/>
<text text-anchor="middle" x="161.22" y="-929.44" font-family="Arial" font-size="12.00">safe_substr</text>
<text text-anchor="middle" x="161.22" y="-916.44" font-family="Arial" font-size="12.00">(schema_util_common.string_utils_pkg)</text>
</g>
<!-- legend_UNKNOWN -->
<g id="node34" class="node">
<title>legend_UNKNOWN</title>
<ellipse fill="lightgray" stroke="black" cx="161.22" cy="-996.04" rx="41.59" ry="18"/>
<text text-anchor="middle" x="161.22" y="-993.54" font-family="Arial" font-size="10.00">UNKNOWN</text>
</g>
<!-- legend_function -->
<g id="node35" class="node">
<title>legend_function</title>
<ellipse fill="lightblue" stroke="black" cx="502.69" cy="-996.04" rx="30.04" ry="18"/>
<text text-anchor="middle" x="502.69" y="-993.54" font-family="Arial" font-size="10.00">function</text>
</g>
<!-- legend_UNKNOWN&#45;&gt;legend_function -->
<!-- legend_procedure -->
<g id="node36" class="node">
<title>legend_procedure</title>
<ellipse fill="cyan" stroke="black" cx="839.92" cy="-996.04" rx="34.96" ry="18"/>
<text text-anchor="middle" x="839.92" y="-993.54" font-family="Arial" font-size="10.00">procedure</text>
</g>
<!-- legend_function&#45;&gt;legend_procedure -->
</g>
</svg>
